# xmcd
#
# Track frame offsets: 
#        150
#        20127
#        40222
#        58564
#        79291
#        94237
#        105651
#        117801
#        132735
#        158195
#        177304
#        197365
#        221529
#
# Disc length: 3247 seconds
#
# Revision: 0
# Processed by: cddbd v1.5.1PL2 Copyright (c) Steve Scherf et al.
# Submitted via: ExactAudioCopy v0.95a5
#
DISCID=b50cad0d
DTITLE=Tyler Grant - In The Light
DYEAR=2006
DGENRE=Bluegrass
TTITLE0=Good Morning Mr Railroad Man
TTITLE1=Lockwood
TTITLE2=Angela
TTITLE3=The Naked Guitar
TTITLE4=Solitary Man
TTITLE5=Half Past Four
TTITLE6=Goin' Back to California
TTITLE7=Come On Up The Mountain
TTITLE8=Azalea
TTITLE9=Cycles The Truth About Change
TTITLE10=Far Away From There
TTITLE11=Grey Eagle
TTITLE12=In The Light
EXTD=
EXTT0=
EXTT1=
EXTT2=
EXTT3=
EXTT4=
EXTT5=
EXTT6=
EXTT7=
EXTT8=
EXTT9=
EXTT10=
EXTT11=
EXTT12=
PLAYORDER=
